#!OML:ASF H:\Male1\Project 1\Capture day 1\Session 1\Male1.ASF
:FULLY-SPECIFIED
:DEGREES
517
root 9.79127 15.2979 -2.05721 4.39306 -76.5208 -7.38633
lowerback 8.37396 1.47952 -4.47721
upperback 3.60573 1.5015 -1.08545
thorax -1.04385 0.675386 1.25543
lowerneck -6.58857 -9.0389 -2.62294
upperneck 7.86536 -12.6137 7.12123
head 4.05078 -6.00609 1.84119
rclavicle 1.49089e-014 8.74653e-015
rhumerus -32.2842 3.64945 -91.1715
rradius 32.9224
rwrist -14.1445
rhand -14.0126 5.86211
rfingers 7.12502
rthumb 12.117 -23.767
lclavicle 1.49089e-014 8.74653e-015
lhumerus -22.5329 2.07732 86.3
lradius 32.176
lwrist 7.31458
lhand -17.8984 12.1657
lfingers 7.12502
lthumb 8.36842 41.9799
rfemur -8.55583 15.9751 23.53
rtibia 29.3094
rfoot -36.4372 -29.2313
rtoes -15.3763
lfemur -8.11186 -20.6146 -22.1271
ltibia 31.8686
lfoot -32.6635 27.2914
ltoes -1.93123
518
root 9.7981 15.2992 -2.05844 4.65547 -76.3505 -7.61694
lowerback 8.4601 1.40789 -4.55634
upperback 3.61214 1.39543 -1.06062
thorax -1.08106 0.622069 1.3337
lowerneck -6.34785 -9.64092 -2.96238
upperneck 7.9703 -13.4032 7.12183
head 4.10419 -6.40752 1.84385
rclavicle 4.27387e-015 2.3059e-014
rhumerus -32.3074 4.26286 -91.2853
rradius 33.0685
rwrist -14.2703
rhand -13.9292 5.8545
rfingers 7.12502
rthumb 12.1974 -23.7699
lclavicle 4.27387e-015 2.3059e-014
lhumerus -22.9266 3.22714 85.86
lradius 30.5437
lwrist 4.43839
lhand -18.4109 11.2852
lfingers 7.12502
lthumb 7.87378 41.1186
rfemur -8.56659 16.0063 23.5952
rtibia 29.2384
rfoot -36.6654 -29.2613
rtoes -15.2263
lfemur -8.29904 -20.2515 -21.9496
ltibia 31.9623
lfoot -32.5711 27.0159
ltoes -2.88893
519
root 9.80306 15.2996 -2.05935 4.91182 -76.1944 -7.87034
lowerback 8.54807 1.34213 -4.62761
upperback 3.62955 1.29811 -1.01775
thorax -1.10825 0.572696 1.42571
lowerneck -6.14136 -10.1931 -3.25468
upperneck 8.10961 -14.1221 7.021
head 4.16188 -6.77556 1.8112
rclavicle 1.98785e-015 -1.19271e-014
rhumerus -32.3363 4.86355 -91.3542
rradius 33.155
rwrist -14.3197
rhand -13.7641 5.86184
rfingers 7.12502
rthumb 12.3565 -23.753
lclavicle 1.98785e-015 -1.19271e-014
lhumerus -23.357 4.51876 85.3476
lradius 28.903
lwrist 1.43948
lhand -18.8119 10.489
lfingers 7.12502
lthumb 7.4867 40.3365
rfemur -8.53734 16.0774 23.6809
rtibia 29.1648
rfoot -36.8435 -29.3112
rtoes -14.8257
lfemur -8.44655 -19.8478 -21.7818
ltibia 32.0738
lfoot -32.5498 26.7648
ltoes -3.82593
520
root 9.80531 15.2993 -2.05968 5.17737 -76.0573 -8.15832
lowerback 8.62035 1.27967 -4.68758
upperback 3.656 1.20747 -0.96133
thorax -1.11748 0.526183 1.52534
lowerneck -5.93449 -10.6843 -3.50033
upperneck 8.24185 -14.7564 6.85791
head 4.20608 -7.10358 1.7594
rclavicle -4.6118e-014 2.94201e-014
rhumerus -32.3647 5.47496 -91.3985
rradius 33.1717
rwrist -14.3162
rhand -13.5882 5.88889
rfingers 7.12502
rthumb 12.5261 -23.7157
lclavicle -4.6118e-014 2.94201e-014
lhumerus -23.8494 5.93913 84.7494
lradius 27.3191
lwrist -1.47772
lhand -19.0112 9.90399
lfingers 7.12502
lthumb 7.29434 39.7583
rfemur -8.46877 16.1793 23.7903
rtibia 29.0898
rfoot -36.9642 -29.3924
rtoes -14.2629
lfemur -8.54659 -19.437 -21.6262
ltibia 32.1998
lfoot -32.6175 26.6337
ltoes -4.73225
521
root 9.80434 15.2983 -2.05952 5.45372 -75.9346 -8.47085
lowerback 8.67067 1.21726 -4.73839
upperback 3.67934 1.11931 -0.897345
thorax -1.1176 0.480931 1.62791
lowerneck -5.72131 -11.0995 -3.69328
upperneck 8.35383 -15.2884 6.65853
head 4.2314 -7.38214 1.69798
rclavicle -5.1684e-015 2.38542e-015
rhumerus -32.4069 6.10027 -91.4355
rradius 33.1253
rwrist -14.2803
rhand -13.4459 5.90439
rfingers 7.12502
rthumb 12.6633 -23.6917
lclavicle -5.1684e-015 2.38542e-015
lhumerus -24.4385 7.45384 84.0552
lradius 25.8438
lwrist -4.14846
lhand -19.0117 9.5727
lfingers 7.12502
lthumb 7.29386 39.427
rfemur -8.3743 16.3022 23.9184
rtibia 29.0201
rfoot -37.0499 -29.4903
rtoes -13.5896
lfemur -8.60805 -19.02 -21.4779
ltibia 32.3321
lfoot -32.7455 26.6533
ltoes -5.60634
